<?xml version="1.0" standalone="no"?>
<!DOCTYPE svg PUBLIC "-//W3C//DTD SVG 20010904//EN"
 "http://www.w3.org/TR/2001/REC-SVG-20010904/DTD/svg10.dtd">
<svg version="1.0" xmlns="http://www.w3.org/2000/svg"
 width="171.000000pt" height="171.000000pt" viewBox="0 0 171.000000 171.000000"
 preserveAspectRatio="xMidYMid meet">
<metadata>
Created by potrace 1.14, written by Peter Selinger 2001-2017
</metadata>
<g transform="translate(0.000000,171.000000) scale(0.100000,-0.100000)"
fill="#000000" stroke="none">
<path d="M892 1532 c-74 -78 -92 -105 -81 -119 9 -10 7 -13 -8 -13 -10 0 -34
16 -53 35 -28 28 -39 34 -69 31 -47 -4 -152 -36 -172 -53 -20 -17 -14 -83 9
-83 24 0 11 -8 -23 -13 -16 -3 -37 -8 -46 -11 -12 -5 -15 -1 -14 16 3 32 -20
73 -54 97 -66 47 -217 28 -309 -39 l-41 -30 36 -60 c22 -38 41 -59 49 -56 12
4 27 -8 30 -24 0 -3 13 -32 28 -65 28 -61 48 -106 51 -115 1 -3 7 -17 14 -32
l13 -26 52 18 c83 29 87 31 82 49 -2 9 -8 27 -11 40 l-7 24 27 -21 c33 -26 83
-28 125 -7 26 13 30 13 30 1 0 -20 18 -24 70 -13 51 10 64 20 66 47 1 11 2 24
3 29 0 5 40 -11 88 -35 107 -55 128 -55 128 1 1 49 8 61 39 67 21 4 24 2 20
-18 -4 -21 1 -23 53 -30 32 -4 66 -7 76 -5 9 1 17 -3 17 -9 0 -7 7 -10 15 -6
9 3 15 0 15 -9 0 -18 7 -22 60 -30 82 -13 100 -10 100 15 0 11 5 20 10 20 6 0
13 0 17 0 4 0 8 -7 9 -16 4 -24 8 -26 75 -33 4 -1 9 -9 12 -20 6 -23 87 -53
109 -40 13 7 20 21 33 69 0 3 23 71 50 152 27 82 46 150 44 152 -3 3 -20 8
-39 11 -19 3 -44 9 -55 12 -11 4 -27 8 -35 9 -30 5 -74 15 -80 19 -15 9 -73
15 -91 10 -14 -5 -19 -16 -19 -44 0 -35 -2 -38 -40 -48 -34 -9 -40 -8 -41 6
-3 35 -8 77 -14 99 -5 19 -12 22 -60 22 -29 0 -56 -4 -59 -9 -3 -4 -25 -7 -48
-6 -43 2 -83 -18 -72 -36 8 -13 -6 -10 -51 11 -22 10 -34 19 -27 19 7 1 26 11
42 22 l29 22 -30 43 c-16 24 -32 44 -35 44 -3 0 -22 -17 -42 -38z m-1 -211
c-7 -5 -17 -15 -22 -22 -6 -10 -9 -8 -9 9 0 16 6 22 23 22 16 0 18 -3 8 -9z
m-125 -31 c0 -20 -7 -25 -19 -13 -4 3 -2 12 4 20 15 17 15 17 15 -7z m-440
-13 c3 -24 -13 -21 -19 4 -3 12 -1 19 5 17 6 -2 12 -12 14 -21z"/>
<path d="M848 995 c-2 -2 -19 -5 -38 -8 -124 -18 -244 -107 -302 -224 -75
-154 -27 -351 113 -458 78 -59 160 -87 259 -87 90 -1 122 4 177 27 18 8 37 15
41 16 39 8 137 111 173 180 30 58 33 72 33 154 0 50 -2 97 -5 105 -3 8 -9 26
-13 40 -33 99 -158 208 -275 240 -41 11 -156 22 -163 15z"/>
</g>
</svg>
